<svg id="_Слой_1" data-name="Слой 1" xmlns="http://www.w3.org/2000/svg" width="112" height="25" viewBox="0 0 385.88 86.5">
    <path d="M277.58,30.52c0-11.32-9.21-20.53-20.53-20.53h-44.86v11.74h44.79c4.85,0,8.79,3.94,8.79,8.79v.24c0,4.85-3.94,8.79-8.79,8.79h-25.06c-10.88,0-19.74,8.85-19.74,19.73v20.92h11.74v-20.96c0-4.39,3.57-7.96,7.96-7.96h25.16c11.32,0,20.53-9.21,20.53-20.53v-.24Z"/>
    <path d="M158.45,39.31v-17.57h44.72v-11.74h-56.46v70.21h56.46v-11.74h-44.72v-17.42h40.5v-11.74h-40.5Z"/>
    <path d="M77.77,59.84c0-11.32-9.21-20.53-20.53-20.53h-30.49c-4.85,0-8.79-3.94-8.79-8.79s3.94-8.79,8.79-8.79h40.88v-11.74H26.76c-11.32,0-20.53,7.83-20.53,19.15s9.21,21.9,20.53,21.9h30.49c4.85,0,8.79,3.94,8.79,8.79s-3.94,8.79-8.79,8.79H17.97v11.74h39.27c11.32,0,20.53-9.21,20.53-20.53Z"/>
    <path d="M113.05,21.74h25.8v-11.74h-63.34v11.74h25.8v58.47h11.74V21.74Z"/>
    <g>
        <path d="M306.65,35.21c-1.65,0-3.19-.25-4.61-.76s-2.66-1.28-3.71-2.29c-1.05-1.02-1.88-2.3-2.48-3.83-.6-1.53-.9-3.31-.9-5.36v-.9c0-1.92.31-3.62.94-5.08.63-1.47,1.48-2.7,2.54-3.69,1.06-.99,2.3-1.74,3.71-2.25,1.41-.51,2.91-.76,4.5-.76,1.68,0,3.17.22,4.48.67,1.3.45,2.41,1.07,3.31,1.84.9.78,1.6,1.7,2.12,2.75.51,1.05.81,2.18.9,3.38h-6.03c-.24-1.11-.73-1.99-1.46-2.63-.74-.64-1.84-.97-3.31-.97-.78,0-1.51.13-2.18.4-.67.27-1.28.68-1.8,1.24-.53.55-.94,1.25-1.24,2.09-.3.84-.45,1.85-.45,3.02v.9c0,1.26.14,2.35.43,3.26s.68,1.67,1.19,2.25,1.11,1.01,1.8,1.28c.69.27,1.44.41,2.25.41,1.17,0,2.18-.31,3.04-.92.86-.61,1.43-1.51,1.73-2.68h6.03c-.15,1.32-.52,2.51-1.1,3.58-.58,1.07-1.35,1.97-2.29,2.72-.95.75-2.05,1.33-3.31,1.73s-2.63.61-4.09.61Z"/>
        <path d="M326.5,8.58c-1.05,0-1.91-.34-2.59-1.01s-1.01-1.54-1.01-2.59.34-1.91,1.01-2.59c.67-.68,1.54-1.01,2.59-1.01s1.91.34,2.59,1.01c.68.67,1.01,1.54,1.01,2.59s-.34,1.91-1.01,2.59c-.67.67-1.54,1.01-2.59,1.01ZM323.53,10.83h5.94v23.85h-5.94V10.83Z"/>
        <path d="M346.79,34.94c-2.82,0-4.88-.61-6.17-1.82s-1.93-3.25-1.93-6.1v-11.25h-3.15v-4.95h3.15v-5.4h5.94v5.4h5.76v4.95h-5.76v10.35c0,1.35.25,2.32.74,2.9.5.58,1.42.88,2.77.88.9,0,1.8-.05,2.7-.14v4.95c-.57.06-1.16.11-1.78.16-.62.04-1.37.07-2.27.07Z"/>
        <path d="M361.28,44.21c-.45,0-.9-.04-1.35-.13v-5.04c.45.09.9.13,1.35.13.9,0,1.6-.34,2.09-1.01s1.06-1.84,1.69-3.49l-10.08-23.85h6.66l6.48,16.47,5.94-16.47h6.12l-9.18,23.85c-.66,1.68-1.28,3.13-1.87,4.34s-1.24,2.21-1.96,2.97c-.72.76-1.54,1.33-2.47,1.69s-2.07.54-3.42.54Z"/>
    </g>
</svg>